<svg width="101" height="73" viewBox="0 0 101 73" fill="none" xmlns="http://www.w3.org/2000/svg">
<path d="M9.6 72.5H2.83122e-07V13C2.83122e-07 4.8 3.83333 0.699995 11.5 0.699995H18.7C26.3667 0.699995 30.2 4.8 30.2 13V72.5H20.6V46.2H9.6V72.5ZM20.6 37.5V13.6C20.6 10.8 19.2 9.4 16.4 9.4H13.8C11 9.4 9.6 10.8 9.6 13.6V37.5H20.6ZM38.6836 0.699995H57.4836C64.8169 0.699995 68.4836 4.8 68.4836 13V30.7C68.4836 36.9667 66.5836 40.9333 62.7836 42.6L69.4836 72.5H60.3836L54.0836 43.5H48.2836V72.5H38.6836V0.699995ZM48.2836 35.3H54.5836C57.4503 35.3 58.8836 33.5667 58.8836 30.1V14.6C58.8836 11.1333 57.4503 9.4 54.5836 9.4H48.2836V35.3ZM91.7766 9.4V72.5H82.1766V9.4H72.9766V0.699995H100.977V9.4H91.7766Z" fill="white"/>
</svg>
