<svg width="96" height="49" viewBox="0 0 96 49" fill="none" xmlns="http://www.w3.org/2000/svg">
<path d="M14.24 9.28L9.6 38H5.04L0.4 9.28H4.2L7.32 31.2L10.44 9.28H14.24ZM28.9284 9.28V32.56C28.9284 36.1867 27.3818 38 24.2884 38H21.0484C17.9818 38 16.4484 36.1733 16.4484 32.52V9.28H20.2884V32.64C20.2884 33.8933 20.8484 34.52 21.9684 34.52H23.5284C24.5684 34.52 25.0884 33.8933 25.0884 32.64V9.28H28.9284Z" fill="#F4A03D"/>
<path d="M42.9545 0.53409V48.375H40.1136V0.53409H42.9545Z" fill="white"/>
<path d="M58.44 38H54.6V14.2C54.6 10.92 56.1333 9.28 59.2 9.28H62.08C65.1467 9.28 66.68 10.92 66.68 14.2V38H62.84V27.48H58.44V38ZM62.84 24V14.44C62.84 13.32 62.28 12.76 61.16 12.76H60.12C59 12.76 58.44 13.32 58.44 14.44V24H62.84ZM70.0734 9.28H77.5934C80.5268 9.28 81.9934 10.92 81.9934 14.2V21.28C81.9934 23.7867 81.2334 25.3733 79.7134 26.04L82.3934 38H78.7534L76.2334 26.4H73.9134V38H70.0734V9.28ZM73.9134 23.12H76.4334C77.5801 23.12 78.1534 22.4267 78.1534 21.04V14.84C78.1534 13.4533 77.5801 12.76 76.4334 12.76H73.9134V23.12ZM91.3106 12.76V38H87.4706V12.76H83.7906V9.28H94.9906V12.76H91.3106Z" fill="white"/>
</svg>
